<svg xmlns="http://www.w3.org/2000/svg" xmlns:xlink="http://www.w3.org/1999/xlink" width="599.951" height="519.957" viewBox="0 0 1095 949">
  <defs>
    <style>
      .cls-1, .cls-2 {
        fill-rule: evenodd;
      }

      .cls-1 {
        fill: url(#linear-gradient);
      }

      .cls-2 {
        fill: url(#linear-gradient-2);
      }
    </style>
    <linearGradient id="linear-gradient" x1="776.422" y1="892.688" x2="776.422" y2="660.656" gradientUnits="userSpaceOnUse">
      <stop offset="0" stop-color="#ffc63d"/>
      <stop offset="1" stop-color="#ff8a00"/>
    </linearGradient>
    <linearGradient id="linear-gradient-2" x1="1011.94" y1="841.895" x2="547.531" y2="465.824" gradientUnits="userSpaceOnUse">
      <stop offset="0" stop-color="#ffcb47"/>
      <stop offset="1" stop-color="#ff9110"/>
    </linearGradient>
  </defs>
  <svg xmlns="http://www.w3.org/2000/svg" viewBox="0 0 261.76 226.69" id="logo" x="2" y="2" width="1091" height="945"><path d="M161.096.001l-30.225 52.351L100.647.001H-.005l130.877 226.688L261.749.001z" fill="#41b883"/><path d="M161.096.001l-30.225 52.351L100.647.001H52.346l78.526 136.01L209.398.001z" fill="#34495e"/></svg>
  <path class="cls-1" d="M645,782c-63-66-97-107-79-119s285,22,348,102,98,90,65,110-76,24-123,7S708,848,645,782Z"/>
  <path id="Shape_316_1" data-name="Shape 316 1" class="cls-2" d="M941.044,395.27c28.513-3.124,48.06,7.3,57.605,23.955,15.631,27.269-4.795,54.111-24.986,64.228,12.826,11.889,24.485,22.66,32.467,40.381,9.51,21.1,5.62,52.521.62,71.275-3.13,11.738-3.64,21.561-7.8,32.561-12.686,33.55-26.838,66.4-34.568,104.44-6.041,29.733,13.954,48.429,25.693,65.043,5.583,7.9,7.74,16.129,12,25.22,3.75,8.008,11,22.842,8.24,36.307-4.58,22.369-20.1,43.391-41.653,51-9.4,3.319-20.624,3.251-32.923,3.254a287.5,287.5,0,0,1-88.879-13.769c-9.024-2.831-20.051-8.109-28.8-10.428-6.8-1.8-17.061,3.532-23.594,4.283-11.287,1.3-28.012-2.646-36.509-6.088C743.331,881,728.873,869.408,720.357,857.4c-2.8-3.949-5.726-14.273-8.734-17.183-3.528-3.414-10.308-4.318-14.6-6.87-9.885-5.871-20.263-12.112-29.986-18.556-37.28-24.711-72.239-52.873-97.794-87.07-17.044-22.807-33.175-52.5-10.72-84.155,24.127-34.011,101.269-22.217,135.18-48.652,12.567-9.8,26.157-35.384,35.609-49.11,22.689-32.95,50.558-67.259,91.005-85.958,10.986-5.079,24.317-6.314,37.678-9.667,11.046-2.773,30.474,1.254,39.847,2.263-1.682-24.732,7.2-39.167,23.523-49.756C926.844,399.126,935.436,399.021,941.044,395.27ZM601,664c-24.32,1.14-23.742,17.378-18,28,3.533,6.536,9.407,17.079,14,23,21.328,27.5,47.94,44.9,78.5,64.835,10.014,6.532,19.549,14.861,31.026,20.175,0.306-33.49,31.616-58.69,60.138-67.453,9.362-2.876,12.378-2.735,21.332-2.557-5-2.6-18.178-9.91-22-12-7.319-4-30.957-16.68-47.771-22.962C679.924,680.726,648.9,663.673,601,664ZM859.391,767.027c6.965,11.937,19.172,31.989,14.586,54.293a100.9,100.9,0,0,1-13.71,34.618c-3.764,5.818-9.821,6.728-8.267,8.062,18.966,7.278,35.058,11.089,42,13,25.1,6.908,48.042,15.715,65,2,3.525-3.4,5.01-9.889-1.494-20.877a176.45,176.45,0,0,0-14.843-21.068c-15.545-19.008-24.178-24.653-51.607-47.975C883.443,782.606,871.428,775.091,859.391,767.027Z"/>
</svg>
